<svg width="38" height="49" viewBox="0 0 38 49" fill="none" xmlns="http://www.w3.org/2000/svg">
<path d="M16.0376 36.0211C20.0676 40.4461 24.9976 44.1461 30.3676 46.7661C31.2426 47.1911 30.7226 48.5261 29.7876 48.2461L6.85755 41.3311C5.86255 41.0311 6.28255 39.5111 7.31755 39.8061L23.7026 44.7461C20.1076 42.3111 16.8226 39.4011 14.0076 36.1411C13.6276 35.6961 13.8376 35.0111 14.3926 34.8511C21.4526 32.8211 28.1126 29.3211 33.8076 24.6711L13.4826 27.7711C12.7226 27.8861 12.2476 26.9561 12.8026 26.4111C17.6176 21.7011 21.4026 15.9711 23.8476 9.71106L8.07255 22.8061C7.53755 23.2511 6.74755 22.8461 6.76255 22.1761L6.99255 10.9611L1.50756 21.7461C1.30756 22.1411 0.822556 22.2961 0.437557 22.0961C0.0425568 21.8961 -0.112446 21.4161 0.0875549 21.0261L7.15255 7.13106C7.51755 6.39606 8.67755 6.64606 8.66255 7.50606L8.39755 20.4611L25.0676 6.62606C25.6776 6.12106 26.5826 6.72606 26.3376 7.48606C24.1476 14.2911 20.4576 20.5911 15.5976 25.8361L36.3126 22.6711C37.1026 22.5611 37.5476 23.5311 36.9726 24.0511C30.9776 29.4811 23.7626 33.6011 16.0376 36.0211Z" fill="black"/>
<path d="M13.3279 6.96106L15.9629 0.501061C16.3579 -0.483939 17.8379 0.126062 17.4379 1.10106L14.8029 7.56106C14.4129 8.53106 12.9279 7.94606 13.3279 6.96106Z" fill="black"/>
<path d="M29.9024 40.5263L25.1974 39.6663C24.1824 39.4813 24.4174 37.9313 25.4824 38.0963L30.1874 38.9563C30.6224 39.0363 30.9074 39.4513 30.8274 39.8863C30.7524 40.2913 30.3774 40.6013 29.8974 40.5263H29.9024Z" fill="black"/>
</svg>
