<svg width="28" height="28" viewBox="0 0 28 28" fill="none" xmlns="http://www.w3.org/2000/svg">
<path d="M26.7145 1.28823C26.5228 1.09656 26.2798 0.964393 26.0147 0.907633C25.7496 0.850874 25.4738 0.871946 25.2204 0.968312L1.78112 9.83999H1.77644C1.50618 9.94394 1.2746 10.1288 1.11332 10.3693C0.952043 10.6097 0.868935 10.8942 0.875345 11.1836C0.881755 11.4731 0.977372 11.7536 1.14914 11.9867C1.3209 12.2198 1.56044 12.3942 1.83503 12.4861L1.85905 12.4937L9.90397 15.9291C10.0609 15.9767 10.2276 15.9823 10.3873 15.9454C10.5471 15.9085 10.6944 15.8303 10.8145 15.7187L23.7262 3.68765C23.7647 3.64918 23.8104 3.61866 23.8607 3.59784C23.9109 3.57701 23.9648 3.5663 24.0192 3.5663C24.0736 3.5663 24.1275 3.57701 24.1778 3.59784C24.228 3.61866 24.2737 3.64918 24.3122 3.68765C24.3507 3.72612 24.3812 3.7718 24.402 3.82206C24.4228 3.87233 24.4335 3.92621 24.4335 3.98062C24.4335 4.03503 24.4228 4.0889 24.402 4.13917C24.3812 4.18944 24.3507 4.23511 24.3122 4.27359L12.2805 17.1794C12.1689 17.2996 12.0907 17.4469 12.0538 17.6066C12.0169 17.7664 12.0226 17.9331 12.0702 18.09L15.5067 26.1396C15.5102 26.1513 15.5137 26.1619 15.5178 26.173C15.7053 26.7162 16.18 27.0994 16.7536 27.1252C16.7788 27.1252 16.7876 27.1252 16.8122 27.1252C17.1018 27.1268 17.3852 27.0413 17.6255 26.8797C17.8658 26.7182 18.052 26.4881 18.1598 26.2193L27.0303 2.78648C27.1281 2.53293 27.1503 2.25649 27.0942 1.9906C27.0382 1.72471 26.9063 1.48075 26.7145 1.28823Z" fill="#0F2BA4"/>
</svg>
