<svg width="81" height="81" viewBox="0 0 81 81" fill="none" xmlns="http://www.w3.org/2000/svg">
<path d="M22.4835 29.5127C23.2047 28.6217 24.276 28.7066 25.1935 28.8604C33.6681 30.3029 41.9837 32.8273 49.9864 36.407C51.6993 37.176 53.5025 38.0881 54.5101 40.0822C55.2791 41.6148 55.417 44.6271 54.2449 46.1492C53.0464 47.7083 50.8455 47.0985 49.5144 46.7007C40.8011 44.065 31.9658 41.3603 24.2972 35.5478C23.4805 34.9327 22.6585 34.2379 22.1918 33.1455C21.7251 32.053 21.741 30.4355 22.4888 29.518L22.4835 29.5127Z" fill="#0F2BA4"/>
<path d="M57.2042 28.287C56.0428 28.706 54.8761 27.1786 54.176 26.2241C49.6311 19.9927 45.0225 13.6552 41.989 5.84877C41.6655 5.01615 41.3579 4.13581 41.3845 3.1653C41.4057 2.2001 41.8671 1.13414 42.5724 0.906099C43.2618 0.68336 43.8823 1.28263 44.3967 1.86069C49.1379 7.1746 53.476 13.1249 57.3368 19.6161C58.1641 21.0056 58.9967 22.5383 59.0497 24.3838C59.0922 25.7945 58.3338 27.8787 57.2042 28.287Z" fill="#0F2BA4"/>
<path d="M52.7437 59.2528C53.6876 59.624 54.7218 61.1567 54.499 62.6522C54.271 64.1849 52.749 65.1341 51.8209 65.691C45.738 69.3344 39.5596 73.0202 33.1108 74.3566C32.4267 74.4998 31.7108 74.6111 31.085 74.2929C30.4592 73.9747 29.9607 73.105 30.1198 72.1822C30.2736 71.286 30.9418 70.7132 31.5463 70.2571C37.1095 66.1047 42.9113 62.6363 48.8669 59.9051C50.1397 59.3217 51.5133 58.7649 52.7489 59.2475L52.7437 59.2528Z" fill="#0F2BA4"/>
</svg>
