<svg width="440" height="189" viewBox="0 0 440 189" fill="none" xmlns="http://www.w3.org/2000/svg">
<g clip-path="url(#clip0_357_35287)">
<path d="M410.2 74.3398C408.62 74.3398 407.34 73.9998 406.15 73.3498C397.24 68.5298 387.29 67.7398 377.58 65.9998C377.3 65.9498 377.01 65.9398 376.73 65.9799C375.69 66.1498 374.46 67.6498 373.68 66.3598C372.8 64.8998 371.51 63.3299 371.87 61.4299C372.45 58.3899 371.67 55.5699 370.76 52.7598C368.68 46.3498 367.3 39.6898 364.13 33.6599C363.18 31.8499 362.51 29.7698 359.7 29.9998C358.6 30.0898 357.97 28.9098 357.66 27.8798C355.91 22.1598 352.71 17.1999 349.44 12.2998C347.55 9.46985 346.91 5.94985 344.25 3.53985C343.24 2.61985 343.97 1.82985 345.11 1.53985C346.07 1.29985 347.01 1.55985 347.91 1.84985C365.03 7.33985 382.37 7.17985 399.78 3.68985C404.19 2.80985 408.74 2.50985 412.9 0.27985C414.98 -0.83015 415.25 1.52985 415.29 2.97985C415.46 8.76985 417.07 14.2398 418.85 19.6598C422.26 30.0698 426.2 40.2499 431.91 49.6599C433.59 52.4299 435.56 54.9899 437.93 57.2199C439.33 58.5399 439.61 59.9499 437.86 61.2899C430.07 67.2699 421.47 71.6098 411.94 74.0499C411.3 74.2099 410.63 74.2698 410.19 74.3398H410.2ZM406.56 11.5498C404.88 11.5798 404.04 12.2698 403.12 12.7398C391.6 18.6098 380.27 24.8798 367.95 28.9998C366.41 29.5198 366.3 30.2099 367.01 31.4998C369.56 36.1199 370.96 41.1699 372.47 46.1799C373.77 50.5098 375.27 54.7799 376.29 59.4299C388.25 44.7399 399.29 29.5598 406.56 11.5398V11.5498ZM407.7 19.9198C406.52 19.7298 406.47 20.5798 406.21 21.0998C399.31 35.2699 390.24 48.0299 380.45 60.2999C378.69 62.5098 379.61 62.7799 381.69 63.1199C390.31 64.5199 398.99 65.7098 406.92 69.7398C408.41 70.4998 408.56 69.7898 408.31 68.5398C407.78 65.9198 407.71 63.2598 407.68 60.5998C407.52 48.0699 407.08 35.5299 407.68 22.9998C407.73 21.9698 407.68 20.9398 407.68 19.9198H407.7ZM412.92 12.1998C411.65 13.5198 411.61 15.0299 411.52 16.5098C410.61 32.3798 410.94 48.2598 411.36 64.1298C411.4 65.4498 411.68 66.7698 411.84 68.0898C412.03 69.6598 412.73 70.1598 414.36 69.6698C421.17 67.6098 427.37 64.3699 433.19 60.3199C434.51 59.3999 434.35 58.6799 433.38 57.6099C430.09 53.9899 427.59 49.8199 425.45 45.4599C420.68 35.6999 416.64 25.6498 413.78 15.1598C413.51 14.1698 413.2 13.1898 412.91 12.1998H412.92ZM407.1 6.63985C407.02 6.41985 406.94 6.20985 406.86 5.98985C405.94 6.14985 405.02 6.26985 404.1 6.46985C387 10.1598 369.89 11.0698 352.72 6.88985C352.18 6.75985 351.55 6.39985 351.1 6.84985C350.47 7.48985 351.14 8.08985 351.44 8.60985C353.95 12.9698 356.93 17.0598 359.05 21.6298C361.62 27.1798 361.61 27.2398 367.62 25.4098C369.97 24.6898 372.3 23.8099 374.54 22.7899C383.17 18.8498 391.77 14.8098 400.12 10.2898C402.43 9.03985 404.77 7.84985 407.09 6.62985L407.1 6.63985Z" fill="white"/>
<path d="M28.1898 172.6C27.9498 173.83 27.0798 174.59 26.1198 175.2C23.5498 176.81 20.9598 178.42 18.3098 179.91C13.5098 182.6 8.66983 185.24 3.80983 187.83C2.70983 188.42 1.17983 189.46 0.269832 187.93C-0.640168 186.38 1.00983 185.52 2.07983 184.91C9.72983 180.5 17.4198 176.17 25.1198 171.85C25.6698 171.54 26.3798 171.41 27.0198 171.37C27.7998 171.32 28.2498 171.77 28.1798 172.62L28.1898 172.6Z" fill="white"/>
<path d="M143.98 130.21C137.61 129.89 132.16 128.02 126.84 125.65C126.03 125.29 125.3 124.72 125.53 123.7C125.8 122.52 126.8 122.38 127.79 122.53C128.53 122.64 129.29 122.84 129.97 123.14C134.34 125.1 138.91 126.28 143.67 126.73C143.76 126.73 143.86 126.74 143.95 126.77C145.17 127.11 147.07 127.06 146.82 128.8C146.6 130.36 144.78 130.14 143.97 130.21H143.98Z" fill="white"/>
<path d="M78.3798 139.34C76.7698 139.11 76.4798 137.97 77.3598 136.94C81.4198 132.19 85.1298 127.13 89.7398 122.87C90.3198 122.34 91.0398 121.96 91.7998 122.49C92.5398 123.01 92.4798 123.8 92.2198 124.55C92.0598 124.99 91.8698 125.46 91.5698 125.8C88.1798 129.75 84.7798 133.7 81.3298 137.6C80.5798 138.45 79.6298 139.12 78.3898 139.34H78.3798Z" fill="white"/>
<path d="M110.61 55.2501C110.31 56.5001 109.52 57.0801 108.67 57.4601C103.9 59.5501 99.92 62.6801 96.37 66.4301C96.05 66.7701 95.63 67.0201 95.22 67.2501C94.47 67.6601 93.6 68.1601 92.89 67.3801C92.18 66.6101 92.69 65.7101 93.19 65.0501C95.81 61.6501 98.93 58.7601 102.67 56.6301C104.47 55.6101 106.29 54.5501 108.35 54.0801C109.52 53.8101 110.38 54.1001 110.61 55.2501Z" fill="white"/>
<path d="M168.86 133.07C166.59 132.94 164.89 132.74 163.42 131.74C162.84 131.35 162.39 130.82 162.58 130.08C162.77 129.33 163.46 128.94 164.12 129.1C169.56 130.44 174.31 127.51 179.38 126.66C179.94 126.57 180.51 126.45 181.07 126.46C181.74 126.47 182.44 126.63 182.67 127.39C182.89 128.14 182.43 128.65 181.9 129.09C181.68 129.27 181.45 129.47 181.19 129.55C176.96 130.94 172.7 132.22 168.86 133.05V133.07Z" fill="white"/>
<path d="M260.8 116.41C259.93 116.2 258.65 116.61 258.4 115.43C258.2 114.5 259.25 113.98 260 113.66C264.81 111.62 269.63 109.63 274.47 107.68C275.5 107.27 276.63 107.34 277.17 108.52C277.6 109.47 277.01 110.24 276.19 110.62C271.61 112.7 267.15 115.06 262.21 116.25C261.75 116.36 261.27 116.36 260.8 116.41Z" fill="white"/>
<path d="M139.33 67.0201C139.27 67.2801 139.23 67.6701 139.11 68.0201C137.7 72.1401 136.32 76.2701 134.84 80.3601C134.48 81.3601 134.16 82.8401 132.61 82.3501C131.41 81.9701 131.44 80.6601 131.65 79.6601C132.63 74.9201 134.17 70.3401 136.27 65.9701C136.64 65.2101 137.21 64.4201 138.25 64.7801C139.22 65.1201 139.26 66.0401 139.32 67.0201H139.33Z" fill="white"/>
<path d="M341.87 71.54C340.28 71.28 340.2 70.37 340.75 69.24C341.48 67.73 342.9 66.86 344.14 65.86C346.57 63.9 349.05 61.99 351.55 60.12C352.35 59.52 353.33 59.27 354.13 60.12C354.95 61.01 354.58 62 353.81 62.62C350.29 65.49 346.71 68.28 343.12 71.07C342.77 71.34 342.24 71.39 341.87 71.52V71.54Z" fill="white"/>
<path d="M208.13 124.2C208.6 124.2 209.08 124.14 209.55 124.21C210.48 124.35 211.64 124.39 211.73 125.59C211.82 126.74 210.76 127.22 209.84 127.37C205.36 128.09 200.86 128.74 196.37 129.37C195.74 129.46 194.96 129.48 194.65 128.71C194.3 127.85 194.87 127.26 195.47 126.78C196.69 125.8 198.18 125.41 199.67 125.17C202.47 124.73 205.3 124.41 208.11 124.04C208.11 124.09 208.12 124.14 208.13 124.19V124.2Z" fill="white"/>
<path d="M292.69 104.81C292.19 104.67 291.53 104.68 291.36 104.4C290.93 103.71 291.53 103.15 291.99 102.7C295.02 99.6799 298.9 98.1499 302.79 96.6499C303.61 96.3399 304.52 96.5999 304.95 97.5299C305.26 98.2199 305.07 98.9799 304.47 99.2999C300.63 101.31 296.94 103.65 292.7 104.81H292.69Z" fill="white"/>
<path d="M234.99 121.85C233.9 121.68 232.49 122.07 232.2 120.86C231.96 119.86 233.21 119.31 234.05 118.99C237.66 117.6 241.29 116.22 245.2 115.88C246.12 115.8 247.35 115.86 247.59 116.92C247.87 118.14 246.57 118.33 245.74 118.65C242.21 120 238.67 121.33 234.99 121.84V121.85Z" fill="white"/>
<path d="M338.73 74.59C338.52 75.02 338.38 75.64 338 75.99C335.62 78.16 333.21 80.3 330.75 82.38C330.08 82.94 329.13 83.17 328.41 82.42C327.57 81.54 327.96 80.58 328.68 79.9C331.03 77.7 333.39 75.5 335.9 73.48C337.01 72.58 338.24 72.78 338.73 74.6V74.59Z" fill="white"/>
<path d="M123.68 47.1599C125.51 47.2799 127.94 47.1 130.01 48.58C130.63 49.02 131.31 49.5799 131.1 50.4199C130.85 51.4099 129.89 51.1699 129.18 51.1399C126.34 50.9899 123.5 50.82 120.67 50.58C119.46 50.48 117.88 50.3899 117.94 48.7799C117.99 47.4199 119.46 47.2799 120.6 47.1799C121.45 47.0999 122.31 47.1699 123.69 47.1699L123.68 47.1599Z" fill="white"/>
</g>
<defs>
<clipPath id="clip0_357_35287">
<rect width="439.08" height="188.71" fill="white"/>
</clipPath>
</defs>
</svg>
