<svg width="39" height="39" viewBox="0 0 39 39" fill="none" xmlns="http://www.w3.org/2000/svg">
<circle cx="19.4329" cy="19.4967" r="19.1751" fill="#080808"/>
<path fill-rule="evenodd" clip-rule="evenodd" d="M27.4203 10.5481H12.0571C11.218 10.5481 10.4844 11.1523 10.4844 11.9818V27.3786C10.4844 28.2129 11.218 28.9562 12.0571 28.9562H27.4155C28.2595 28.9562 28.8924 28.2081 28.8924 27.3786V11.9818C28.8972 11.1523 28.2595 10.5481 27.4203 10.5481ZM16.1904 25.8922H13.5532V17.6927H16.1904V25.8922ZM14.9629 16.4461H14.9437C14.0998 16.4461 13.5532 15.8179 13.5532 15.0315C13.5532 14.2308 14.1142 13.617 14.9773 13.617C15.8404 13.617 16.3678 14.226 16.387 15.0315C16.387 15.8179 15.8404 16.4461 14.9629 16.4461ZM25.8285 25.8922H23.1913V21.4089C23.1913 20.3348 22.8077 19.6012 21.8535 19.6012C21.1246 19.6012 20.6931 20.0951 20.5013 20.5746C20.4294 20.7472 20.4102 20.9821 20.4102 21.2219V25.8922H17.7729V17.6928H20.4102V18.834C20.7938 18.2873 21.3932 17.501 22.7885 17.501C24.5195 17.501 25.8285 18.6422 25.8285 21.102V25.8922Z" fill="white"/>
</svg>
