<svg width="262" height="305" viewBox="0 0 262 305" fill="none" xmlns="http://www.w3.org/2000/svg">
<g clip-path="url(#clip0_351_33370)">
<path d="M28.6172 4.63886C4.06249 26.1619 1.59933 63.4564 23.1248 88.0168C40.6464 108.009 68.2805 113.076 90.7786 103.44C127.651 87.6465 138.434 40.2958 111.995 10.1313C90.5243 -14.3647 53.1352 -16.8279 28.6172 4.63886ZM104.509 91.2353C81.2482 111.616 45.7722 109.266 25.393 86.0251C5.01706 62.7762 7.35671 27.2911 30.6032 6.90952C41.8374 -2.93562 56.2639 -7.85144 71.238 -6.86731C86.1786 -5.88237 99.85 0.861896 109.713 12.1222C130.089 35.3711 127.749 70.8562 104.503 91.2378L104.509 91.2353Z" fill="white"/>
<path d="M94.4487 65.966C94.7033 65.3773 95.0068 64.8082 95.1741 64.1893C96.4692 59.358 95.1489 51.9378 90.9177 47.0279C85.7734 41.0429 78.1679 39.6592 70.2315 45.2002C64.8373 48.9632 61.1764 54.1863 57.3706 54.5598C54.1837 54.8641 51.4109 51.9238 50.365 50.649C44.2074 43.1186 44.9254 33.312 50.6534 28.4196C53.6336 25.8662 57.9158 25.0117 61.537 26.2577C62.3198 26.5237 63.1818 26.1072 63.4568 25.3138C63.726 24.5228 63.3038 23.6633 62.5129 23.394C57.9018 21.8086 52.4738 22.8904 48.6943 26.1172C48.2751 26.4791 47.9447 26.9382 47.5647 27.3442C44.2864 24.0124 40.4248 21.7478 37.6089 18.8328C37.0349 18.2341 36.0849 18.2087 35.4716 18.7957C34.8696 19.3778 34.8523 20.331 35.4344 20.933C38.6694 24.2901 42.606 26.4617 45.7114 29.7527C37.8845 42.3474 48.8409 58.4159 57.657 57.5787C65.214 56.8618 70.7683 44.2136 80.5578 44.7498C83.4502 44.9094 86.4695 46.501 88.625 49.0098C92.1315 53.0951 93.3077 59.469 92.2532 63.427C91.229 67.2505 87.8263 70.3632 83.3842 71.57C79.7006 72.56 75.3477 72.3503 70.081 70.9377C69.2753 70.7287 68.4435 71.1999 68.2288 72.008C68.0142 72.8161 68.4911 73.6455 69.2991 73.8601C78.1782 76.2456 87.4753 75.9319 92.9208 68.6135C96.6282 71.2278 100.298 74.0069 103.835 76.8699C104.496 77.4041 105.449 77.2795 105.962 76.6477C106.488 75.9971 106.391 75.0454 105.74 74.5201C102.087 71.5584 98.2833 68.688 94.4504 65.9856L94.4487 65.966Z" fill="white"/>
<path d="M188.303 37.4612C184.001 35.7299 179.276 38.4223 177.017 41.8223C175.823 43.6104 175.12 45.5804 174.606 47.645C172.344 44.0533 167.244 42.7923 164.595 47.5549C162.578 51.1416 162.715 55.4204 163.22 59.298C160.159 57.0557 156.677 57.4928 155.396 61.5682C154.132 65.589 155.301 70.2904 156.613 74.363C158.438 80.0268 160.724 85.6148 163.381 90.9827C161.215 96.2412 158.81 101.163 156.068 105.756C155.144 107.306 154.129 108.863 152.679 109.484C152.205 109.498 151.474 110.615 146.535 108.737C145.248 101.567 147.01 98.5826 146.231 92.7748C145.314 86.4857 142.267 81.1226 136.901 77.7732C138.851 73.0668 140.404 68.0504 141.41 62.7485C141.564 61.9258 141.026 61.1428 140.201 60.9828C139.378 60.8285 138.587 61.3633 138.435 62.1918C137.477 67.2572 135.992 72.055 134.135 76.5527C129.761 75.4265 124.527 78.0805 123.597 85.2009C123.185 88.2759 123.632 90.8814 123.555 94.6439C89.5889 138.439 17.6591 129.469 -3.42055 75.0651C-18.015 36.7803 1.19557 -5.86341 38.9446 -20.4783C83.0556 -37.575 131.89 -9.17944 138.87 37.3864C138.994 38.2117 139.765 38.7802 140.59 38.6564C141.417 38.5522 141.986 37.7679 141.86 36.9369C134.2 -14.243 78.1805 -43.9252 31.095 -20.2712C-26.7936 -4.96166 -49.5208 66.5233 -9.34208 112.409C-2.04383 120.741 6.59217 127.149 15.9437 131.757C16.238 136.009 18.0932 139.93 20.7036 143.17C24.4138 147.81 27.8255 148.646 32.0451 154.412C29.8472 159.643 28.2071 160.373 23.3064 159.263C18.0959 158.076 12.8683 156.424 7.56503 154.358C5.51043 148.725 3.03666 143.218 0.201594 137.987C-1.94387 134.035 -4.45385 130.13 -8.21191 128.281C-12.1216 126.361 -14.7846 128.772 -15.2559 132.372C-17.7139 129.331 -20.7166 126.28 -24.6966 125.268C-26.0559 124.918 -27.2269 124.913 -28.2626 125.255C-31.0028 126.24 -32.3017 129.58 -31.5464 132.574C-33.3687 131.537 -35.2963 130.68 -37.4245 130.301C-41.4422 129.597 -46.6427 131.162 -48.3683 135.462C-49.8638 139.21 -48.3602 143.572 -43.8998 148.418C-39.5259 153.172 -34.3111 157.397 -29.7984 161.497C-26.7483 164.265 -23.4038 166.474 -20.1693 168.615C-9.90081 175.412 -7.18509 178.14 16.4329 182.664C18.9665 183.153 20.9227 183.572 23.0003 184.526C29.4409 187.497 34.9126 191.849 39.2342 197.301C41.6604 200.363 44.0873 203.647 44.831 207.26C44.9093 207.632 45.1196 207.934 45.4049 208.143L42.6279 210.224C38.8672 213.037 37.9242 218.36 40.4774 222.333C43.0078 226.269 45.14 231.389 49.1685 234.501C53.2549 237.669 56.4591 236.364 60.4466 233.15C103.492 198.471 99.4052 201.579 101.931 199.795C104.704 197.83 108.154 195.379 108.359 191.819C108.363 191.783 108.365 191.472 108.37 191.436C108.328 188.245 105.897 185.915 103.94 184.044C102.318 182.495 102.867 182.956 98.7243 178.569C95.4892 175.117 90.1782 174.642 86.451 177.455L47.7326 206.416C46.8039 202.26 44.2123 198.702 41.6182 195.422C38.5569 191.571 34.9509 188.231 30.9002 185.494C24.5267 181.197 20.7692 180.422 17.0199 179.697C-6.14396 175.255 -8.47564 172.714 -18.4873 166.091C-21.7756 163.919 -24.8788 161.863 -27.7601 159.253C-32.5166 154.946 -37.4574 150.935 -41.6724 146.362C-45.2775 142.441 -46.5856 139.15 -45.5544 136.574C-44.4709 133.867 -40.828 132.766 -37.9422 133.273C-34.528 133.878 -31.3571 136.154 -28.2523 138.277C-27.9906 138.604 -27.7803 138.811 -27.2886 138.918C-9.21564 151.127 6.70709 158.569 22.6461 162.201C28.2391 163.46 31.4522 162.476 33.9918 157.442C34.8322 158.947 35.5666 160.504 36.1037 162.105C36.7336 163.97 39.6344 163.092 38.9735 161.139C37.553 156.924 35.1385 152.911 31.985 149.539C29.1796 146.539 25.5341 144.337 23.0835 141.266C20.8546 138.491 19.4559 135.415 19.0432 132.369C18.7308 128.706 18.8337 124.088 22.1904 122.603C24.1085 121.781 26.6926 122.309 29.0873 124.02C30.4831 125.023 31.7069 126.303 33.0015 127.654C44.409 139.522 50.5487 134.96 66.46 154.237C70.4922 159.219 75.2196 165.903 75.903 173.508C75.9763 174.341 76.719 174.955 77.5443 174.879C78.3777 174.806 78.9886 174.071 78.9154 173.238C78.1547 164.821 73.1167 157.649 68.7959 152.325C64.4261 147.028 60.4475 143.118 56.414 140.042C83.9328 138.626 107.798 123.695 121.467 101.679C121.977 101.15 122.415 100.611 122.895 100.075C121.171 108.779 117.323 115.379 119.724 133.903C120.58 140.697 122.289 149.309 127.885 155.654C128.438 156.282 129.394 156.339 130.017 155.788C130.645 155.236 130.701 154.279 130.151 153.657C125.097 147.93 123.526 139.895 122.723 133.523C121.712 125.754 121.727 119.431 122.773 113.639C123.873 107.675 126.266 101.542 126.556 95.5C126.87 93.7713 126.226 88.6085 126.627 85.5856C126.923 83.344 128.012 80.4926 130.347 79.6817C133.405 78.4461 135.984 80.4902 138.365 82.8009C140.903 85.2404 142.647 88.9324 143.266 93.1868C144.146 99.7824 140.737 106.904 146.641 118.401C147.026 119.141 147.945 119.457 148.678 119.055C149.421 118.676 149.714 117.767 149.332 117.018C148.547 115.483 147.932 113.875 147.423 112.229C149.574 112.881 151.766 113.172 153.884 112.265C154.247 111.961 155.948 111.894 158.695 107.299C167.029 93.3181 172.61 76.7402 176.288 55.106C176.645 54.5344 176.878 47.5093 179.561 43.4888C181.189 41.042 184.488 39.1696 187.203 40.2563C189.777 41.2819 191.256 44.4992 191.608 49.8144C191.897 54.2914 191.712 58.9378 191.527 63.4285C191.209 71.3139 191.49 71.2749 189.889 80.203C187.76 92.0936 187.954 95.5438 175.239 115.292C173.082 118.648 171.107 121.94 169.852 129.342C169.033 134.165 168.971 139.083 169.65 143.947C170.234 148.088 171.025 152.411 173.389 155.959L125.712 164.003C121.103 164.775 117.792 168.936 118.05 173.656L118.373 179.301C118.57 182.662 117.869 187.002 120.994 189.772C124.382 192.651 129.994 190.673 133.47 190.224C185.6 183.394 186.013 183.602 188.445 182.561C194.81 179.834 192.901 171.937 190.936 165.347C190.564 164.115 190.204 162.897 189.913 161.698C188.793 157.11 184.292 154.126 179.659 154.902L176.236 155.476C176.412 153.914 174.133 154.1 172.64 143.531C171.682 136.658 172.294 129.647 174.6 122.964C176.997 115.958 189.47 102.948 192.026 85.7127C192.821 80.3455 194.214 74.7493 194.357 68.8511C194.505 62.7613 195.042 56.0656 194.618 49.6194C194.186 43.0418 192.066 38.9436 188.323 37.4457L188.303 37.4612ZM89.5111 179.158C91.8573 178.153 94.6632 178.694 96.5009 180.65L100.364 184.778C102.255 186.812 105.299 188.981 105.329 191.434C105.323 191.876 105.314 192.11 105.327 191.665C105.174 194.385 100.62 196.843 98.163 198.821L58.5283 230.816C56.5766 232.395 54.6575 233.751 52.707 233.141C52.1689 232.972 51.6307 232.615 51.0005 232.122C47.6055 229.495 45.5523 224.686 43.013 220.713C41.3133 218.07 41.9371 214.526 44.4344 212.659C90.6635 178.157 88.2266 179.708 89.5111 179.158ZM-28.6855 131.666C-28.9756 130.31 -28.4313 128.442 -27.3034 128.142C-26.8435 127.985 -26.2188 128.008 -25.4491 128.212C-21.9844 129.093 -19.2116 132.175 -16.951 135.071C-14.189 138.617 -11.7344 142.424 -9.47232 146.333C-14.8537 143.375 -20.4112 139.958 -26.2132 136.018C-27.2648 134.699 -28.3475 133.244 -28.6823 131.658L-28.6855 131.666ZM-4.79699 148.809C-4.79042 148.556 -4.82298 148.307 -4.95096 148.071C-6.46793 145.208 -8.15942 142.426 -9.94961 139.713C-10.318 138.601 -11.9941 136.502 -12.2806 133.908C-12.4523 132.388 -11.8559 130.815 -11.0192 130.639C-10.7803 130.597 -10.3285 130.627 -9.54413 131.007C-6.53213 132.487 -4.26673 136.104 -2.45221 139.441C-0.131502 143.723 1.87359 148.215 3.66828 152.784C0.881286 151.593 -1.93911 150.261 -4.79699 148.809ZM167.231 49.0404C167.615 48.3424 168.026 47.8826 168.456 47.6576C169.574 47.003 171.182 47.9493 171.961 49.0886C172.88 50.4311 173.189 52.2243 173.415 53.9042C172.267 60.8142 170.907 67.1802 169.331 73.1384C168.06 68.7983 166.996 64.3897 166.332 59.938C165.795 56.3034 165.475 52.164 167.228 49.0485L167.231 49.0404ZM164.93 87.0762C162.861 82.625 160.985 78.071 159.495 73.4397C158.331 69.8237 157.273 65.6965 158.286 62.4789C159.074 59.9324 161.17 61.1829 162.266 62.4968C163.946 64.4934 164.419 67.3648 164.86 68.1893C165.588 71.3567 166.435 74.5005 167.461 77.5741C167.551 77.8327 167.71 78.0284 167.897 78.1981C166.976 81.2681 165.994 84.2288 164.933 87.068L164.93 87.0762ZM186.949 162.427C188.059 166.944 190.137 171.81 189.693 176.074C189.608 176.867 189.503 177.507 189.253 178.012C188.338 179.85 186.036 180.296 183.56 180.62L133.052 187.228C129.919 187.644 125.007 189.235 122.929 187.477C122.599 187.179 122.467 187.06 122.797 187.357C120.998 185.601 121.534 181.933 121.369 179.132L121.045 173.488C120.871 170.306 123.067 167.514 126.192 166.986L180.133 157.887C183.21 157.373 186.203 159.361 186.946 162.421L186.949 162.427Z" fill="white"/>
</g>
<defs>
<clipPath id="clip0_351_33370">
<rect width="260.99" height="296.035" fill="white" transform="translate(-95 32.7588) rotate(-23.1866)"/>
</clipPath>
</defs>
</svg>
