<svg width="33" height="33" viewBox="0 0 33 33" fill="none" xmlns="http://www.w3.org/2000/svg">
<path d="M21.7498 16.2739C20.4648 16.2739 19.2223 15.7002 18.2498 14.6589C17.3042 13.6433 16.7267 12.2889 16.6248 10.8464C16.516 9.30768 16.9854 7.89268 17.946 6.86143C18.9067 5.83018 20.2498 5.27393 21.7498 5.27393C23.2392 5.27393 24.586 5.84018 25.5435 6.86893C26.5104 7.90768 26.981 9.32018 26.8723 10.8458C26.7679 12.2902 26.191 13.6439 25.2473 14.6583C24.2773 15.7002 23.0354 16.2739 21.7498 16.2739Z" fill="#21272A"/>
<path d="M29.9893 27.2739H13.5112C13.2463 27.2753 12.9845 27.216 12.7462 27.1003C12.5078 26.9847 12.2991 26.816 12.1362 26.607C11.9634 26.3806 11.8441 26.1179 11.7871 25.8388C11.7302 25.5596 11.7371 25.2712 11.8075 24.9952C12.3337 22.8821 13.6375 21.1296 15.5775 19.9277C17.2993 18.8614 19.4912 18.2739 21.75 18.2739C24.0531 18.2739 26.1875 18.8364 27.9193 19.9021C29.8637 21.0977 31.1693 22.8602 31.6931 24.9989C31.7625 25.2752 31.7687 25.5636 31.7111 25.8426C31.6536 26.1216 31.5337 26.384 31.3606 26.6102C31.1978 26.8181 30.9896 26.9861 30.7519 27.1011C30.5143 27.2162 30.2534 27.2753 29.9893 27.2739Z" fill="#21272A"/>
<path d="M9.9379 16.5239C7.73852 16.5239 5.80477 14.4789 5.6254 11.9658C5.53665 10.6783 5.9379 9.48768 6.7504 8.61455C7.55415 7.75018 8.6879 7.27393 9.9379 7.27393C11.1879 7.27393 12.3129 7.75268 13.121 8.62205C13.9398 9.50205 14.3398 10.6902 14.246 11.9671C14.0666 14.4796 12.1335 16.5239 9.9379 16.5239Z" fill="#21272A"/>
<path d="M14.0412 18.4898C12.9418 17.9523 11.5149 17.6836 9.93805 17.6836C8.0968 17.6836 6.30868 18.1636 4.90243 19.0348C3.30805 20.0242 2.23555 21.4648 1.80243 23.2042C1.73904 23.4544 1.73305 23.7157 1.78489 23.9685C1.83673 24.2213 1.94507 24.4592 2.1018 24.6642C2.25052 24.8551 2.44104 25.0094 2.65872 25.1152C2.8764 25.2209 3.11543 25.2753 3.35743 25.2742H10.2949C10.412 25.2742 10.5254 25.2331 10.6153 25.1581C10.7052 25.083 10.7659 24.9788 10.7868 24.8636C10.7937 24.8242 10.8024 24.7848 10.8124 24.7461C11.3424 22.6173 12.5843 20.8186 14.4193 19.5073C14.4868 19.4587 14.5411 19.394 14.5772 19.319C14.6134 19.2441 14.6303 19.1613 14.6264 19.0782C14.6225 18.9951 14.5979 18.9143 14.5548 18.8431C14.5118 18.7719 14.4517 18.7126 14.3799 18.6705C14.2818 18.613 14.1693 18.5523 14.0412 18.4898Z" fill="#21272A"/>
</svg>
