<svg width="117" height="136" viewBox="0 0 117 136" fill="none" xmlns="http://www.w3.org/2000/svg">
<g clip-path="url(#clip0_655_32603)">
<path d="M64.2467 14.4291C61.6479 14.2013 48.4432 8.96158 33.0223 15.7285C32.921 15.7116 32.817 15.7116 32.7157 15.7397C21.6007 18.555 12.2885 25.5385 6.45541 35.4385C-0.106156 46.5535 -1.72616 60.18 1.87666 73.8263C2.74572 77.1253 3.94103 80.4075 5.40072 83.5435C5.44009 83.6053 5.48228 83.6644 5.52166 83.7263C5.54134 83.6869 5.58353 83.6447 5.62291 83.625L5.70447 83.5435L6.08978 83.22L14.367 76.5516C14.5779 77.0241 14.8254 77.4797 15.0476 77.9466C14.8648 78.0956 6.10384 85.1888 6.65791 84.7416C6.49478 84.8625 6.31478 84.9244 6.13197 84.9244H6.07009C6.07009 84.9441 6.08978 84.9638 6.08978 84.9863C9.34947 91.545 13.7426 97.4372 19.1876 102.458C26.936 109.604 36.0204 114.217 45.0626 116.244C47.6698 116.804 48.1507 117.288 51.2979 116.163C53.1007 115.536 54.7798 114.34 56.1579 112.763C56.7148 112.121 57.1338 111.351 57.477 110.479C57.6373 110.501 57.7948 110.541 57.9551 110.563C57.986 110.566 58.017 110.569 58.0451 110.569C58.3826 110.569 58.6779 110.318 58.7257 109.973C58.7595 109.717 58.6385 109.48 58.4445 109.337C58.4613 109.278 58.481 109.216 58.4838 109.151C58.5992 61.6622 58.4923 61.3472 58.4473 61.215C58.3882 61.0378 58.2588 60.8916 58.0929 60.81C57.7413 60.6413 57.4573 60.4416 16.1417 75.5925C15.8885 75.6853 15.7282 75.916 15.7029 76.1663C15.6663 76.0847 15.6213 76.0088 15.5876 75.93C15.6017 75.9272 15.6185 75.9188 15.6298 75.9159C15.6298 75.8963 15.6101 75.8766 15.6101 75.8541C14.516 73.365 13.5851 70.7325 12.8173 68.0578C5.33322 41.0719 19.9863 17.5931 43.4285 14.1141C53.441 12.6291 60.3513 15.225 63.3495 15.6413L57.7217 58.6781C57.6738 59.0522 57.9382 59.3953 58.3123 59.446C58.706 59.491 59.0295 59.2294 59.0801 58.8553L64.7895 15.1885C64.8345 14.8341 64.601 14.5022 64.2523 14.4291H64.2467ZM16.6085 76.8778C31.2279 71.5172 52.8195 63.676 57.1338 62.3063C57.1929 67.335 57.1479 94.1972 57.1113 108.974C39.9832 106.342 24.3317 94.1944 16.2963 77.2688C16.2823 77.2772 16.2626 77.28 16.2485 77.2885C16.1698 77.1253 16.0854 76.9622 16.0095 76.7991C16.1867 76.9144 16.406 76.9566 16.6113 76.8806L16.6085 76.8778Z" fill="#212121"/>
<path d="M114.866 63.8531C114.49 63.8953 114.222 64.2356 114.265 64.6097C115.086 71.6915 114.563 78.8494 113.117 85.7456C69.6302 58.0959 68.1537 57.1565 65.7968 55.6603C65.763 55.635 65.718 55.604 65.6758 55.5731L74.9008 14.8706C95.2633 25.2375 107.973 39.2015 112.67 56.3775C112.768 56.7403 113.14 56.9653 113.511 56.8556C113.876 56.7572 114.09 56.3803 113.992 56.0147C109.126 38.2256 95.9187 23.8397 74.7349 13.2506C74.5465 13.1578 74.3271 13.1522 74.1358 13.2422C73.5621 13.5094 74.4283 11.2256 64.2499 55.6631C64.233 55.6828 64.2133 55.6884 64.1993 55.7109C64.0896 55.8628 64.0446 56.009 64.0052 56.1356C63.4483 58.0537 62.5427 58.7822 64.0137 59.6428C112.954 91.3537 110.088 89.7169 110.631 89.3934C112.391 88.35 113.286 87.8156 113.75 87.4978C113.781 87.4894 113.812 87.4922 113.843 87.4809C114 87.4162 114.107 87.2869 114.18 87.1378C114.214 87.0928 114.234 87.0506 114.245 87.0084C114.383 86.3475 114.681 85.1184 115.069 82.7672C116.115 76.4475 116.304 70.2853 115.623 64.4494C115.581 64.0753 115.255 63.7969 114.866 63.8475V63.8531Z" fill="#212121"/>
<path d="M96.7256 53.1037C96.8746 51.7678 96.4162 50.4712 95.4965 49.6275C92.864 47.2256 88.0237 48.9131 86.5077 47.9259C85.7877 47.4534 85.8524 46.3762 85.9171 45.9318C86.0943 44.6803 86.758 43.454 87.7396 42.5681C90.2737 40.2815 93.5896 40.8468 94.5824 42.599C94.7709 42.9281 95.1927 43.0406 95.5162 42.855C95.8452 42.6665 95.9605 42.2503 95.7721 41.9212C94.4587 39.6093 91.3284 39.6487 91.5112 39.6937C91.393 39.6937 91.2749 39.7218 91.1568 39.7303C91.1512 39.1396 91.1006 38.5603 91.0302 38.0034C90.9459 37.3537 90.8671 36.7406 90.8952 36.1303C90.9121 35.7534 90.6196 35.4328 90.2427 35.4131C88.8646 35.4271 89.8546 37.8431 89.7927 39.9609C84.5531 41.3953 83.2481 47.4281 85.7596 49.0678C87.8184 50.4178 92.4168 48.674 94.574 50.6371C96.4668 52.3725 94.7231 55.68 92.6671 56.805C91.4802 57.4575 89.8462 57.5025 88.5074 56.9203C87.4021 56.4393 86.4262 55.5618 85.5234 54.2371C85.3096 53.9221 84.8821 53.8462 84.5727 54.0571C84.2606 54.2681 84.179 54.6956 84.3927 55.0078C86.114 57.5362 88.4315 59.0606 91.4662 58.5881C91.6855 59.8396 91.8712 61.1081 91.9949 62.3709C92.0287 62.7225 92.3268 62.9868 92.6756 62.9868C93.0806 62.9868 93.3955 62.6409 93.3562 62.2359C93.224 60.8943 93.0327 59.5415 92.7937 58.2112C92.968 58.1381 93.1593 58.0959 93.3252 58.0059C94.9171 57.1284 96.5034 55.1315 96.7256 53.1037Z" fill="#212121"/>
<path d="M94.5206 2.32132C94.0931 2.27632 93.8316 2.58288 93.6291 2.86694C91.7644 5.49663 90.2288 8.37101 89.0559 11.4423C88.8056 12.1004 88.5694 12.8204 88.8309 13.6163C89.0334 14.2266 89.7956 15.0619 90.51 15.1548C91.2413 15.2504 91.6631 14.5051 91.9106 14.0466C93.5222 11.0373 95.1478 7.97726 95.64 4.40257C95.6934 4.02288 95.7272 3.62069 95.5613 3.20726C95.3953 2.79382 94.9622 2.36913 94.5206 2.32413V2.32132Z" fill="#212121"/>
<path d="M84.989 11.2031C85.4081 11.0063 85.3125 10.2919 85.245 9.85314C84.7978 6.99564 84.3394 4.09314 83.0737 1.21877C82.9387 0.912204 82.7869 0.597204 82.5225 0.346892C82.2609 0.0965794 81.8559 -0.0637331 81.6084 0.0628294C81.3665 0.186579 81.3609 0.510017 81.3778 0.799704C81.5297 3.46595 81.9572 6.19408 82.6547 8.93908C82.8037 9.52689 82.9894 10.1541 83.4647 10.6575C83.8275 11.0428 84.5812 11.3944 84.989 11.2031Z" fill="#212121"/>
<path d="M94.3824 18.2317C94.2306 18.5804 94.3628 19.261 94.8184 19.5985C95.2853 19.9445 95.9406 19.7926 96.3343 19.6942C98.9134 19.0473 101.529 18.3864 103.593 17.0307C103.813 16.8873 104.032 16.727 104.114 16.4767C104.195 16.2264 104.097 15.8635 103.81 15.661C103.532 15.4642 103.202 15.4895 102.921 15.5289C100.345 15.9029 97.8868 16.5217 95.5834 17.3767C95.0912 17.5595 94.5793 17.776 94.3796 18.2317H94.3824Z" fill="#212121"/>
<path d="M38.9597 82.8066C40.4982 82.4972 41.5219 80.8603 41.2463 79.1531C40.9707 77.446 39.4997 76.3153 37.9613 76.6247C36.4228 76.9341 35.3991 78.571 35.6747 80.2781C35.9503 81.9853 37.4213 83.116 38.9597 82.8066Z" fill="#212121"/>
<path d="M45.932 82.7165C44.3935 83.0259 43.3698 84.6628 43.6454 86.3699C43.921 88.0771 45.392 89.2077 46.9304 88.8984C48.4689 88.589 49.4926 86.9521 49.217 85.2449C48.9414 83.5378 47.4704 82.4071 45.932 82.7165Z" fill="#212121"/>
<path d="M35.0613 91.9332H35.0809C35.3172 91.9248 35.5253 91.7982 35.6434 91.6098C36.2144 90.8673 45.9766 79.6792 52.4566 72.2738C52.7069 71.9898 52.6759 71.5567 52.3919 71.3063C52.1078 71.056 51.6747 71.0842 51.4244 71.371C40.0525 84.3685 34.3694 91.0004 34.375 91.2667C34.3863 91.6379 34.69 91.9304 35.0584 91.9304L35.0613 91.9332Z" fill="#212121"/>
<path d="M104.589 91.3424C66.2122 64.4183 65.419 63.4311 64.5134 63.5465C64.3137 63.358 64.1084 63.4986 63.934 63.7068C63.7793 63.8896 64.4487 63.2146 61.9625 65.594C61.6868 65.8583 61.6278 64.649 63.8975 81.7771C65.1265 91.064 66.53 100.348 67.354 109.68C67.5481 111.879 68.3384 115.73 71.134 115.881C71.944 115.926 76.3118 115.294 80.7331 113.654C90.9396 109.866 99.0875 102.255 104.651 92.9005C104.794 92.6615 104.937 92.3971 104.822 92.144C104.867 92.0286 104.89 91.9105 104.87 91.7868C104.839 91.6096 104.738 91.4493 104.589 91.3424ZM103.23 92.0596C99.2731 97.3274 92.9309 101.895 86.9206 104.961C79.2003 108.164 75.3584 107.728 72.214 108.521C72.2 108.524 72.1859 108.532 72.169 108.535C72.0875 108.473 72.0115 108.406 71.975 108.327L65.4781 65.4646L103.227 92.0568L103.23 92.0596Z" fill="#212121"/>
</g>
<defs>
<clipPath id="clip0_655_32603">
<rect width="116.021" height="135.667" fill="white" transform="translate(0 0.0175781)"/>
</clipPath>
</defs>
</svg>
