<svg width="109" height="139" viewBox="0 0 109 139" fill="none" xmlns="http://www.w3.org/2000/svg">
<g clip-path="url(#clip0_655_28252)">
<path d="M78.9418 7.8162C65.5628 -3.44505 51.9446 2.33464 49.4218 20.2278C49.3993 20.239 49.374 20.2418 49.3515 20.2559C40.9815 25.7853 32.4878 32.5156 24.0615 40.2696C12.6456 46.2321 2.8637 46.9746 0.447767 55.7496C-1.10473 61.3803 1.53058 67.9137 6.02495 70.7909C8.41277 72.3237 10.0581 72.3828 12.7553 71.6937C14.8168 81.2196 17.2243 90.2421 19.7809 98.4153C20.2871 100.032 20.9762 101.65 22.5709 102.536C24.0165 103.337 25.7743 102.89 27.369 102.536C31.0815 101.74 36.9681 99.6218 39.4515 97.819C40.2896 97.4871 41.1137 97.1243 41.9715 96.7165C43.2568 96.0893 45.6531 94.9221 46.089 93.2009C46.4321 91.8481 45.549 90.9537 44.5028 90.2L44.3621 90.0987C41.0996 87.7643 38.2871 84.6762 36.2312 81.1746C35.4775 79.8865 34.7434 78.4437 33.9981 76.804C34.0684 76.7759 34.1443 76.7618 34.2118 76.7309C35.41 76.1853 36.5715 74.8381 36.1215 73.6315C35.8206 72.7821 34.7068 72.3743 33.7703 71.1762C33.0362 70.2284 32.6537 69.005 32.7156 67.8181C32.7156 67.79 32.7071 67.7675 32.7043 67.7393C37.9806 68.1162 47.47 67.4328 53.59 67.0165C59.0434 66.6453 64.1931 66.2937 67.1715 66.3668C76.6075 73.8256 85.1462 72.5656 90.3606 66.8112C96.2725 64.4543 99.0315 57.7184 96.1037 52.1075C97.7406 36.5037 90.445 17.4996 78.9418 7.8162ZM36.4337 97.9653C32.3415 99.9143 29.6781 100.584 26.6603 101.292C23.859 101.92 22.3375 101.984 21.0915 98.0046C18.4562 89.584 16.0768 80.5587 14.0912 71.3731C17.1456 70.6278 20.3743 69.9443 23.9968 69.2946C25.6871 74.4809 27.4421 79.7234 30.1618 84.3387C32.1728 87.7503 34.8728 90.7484 38.0256 93.1559C39.0128 94.0334 40.3853 94.8462 39.3053 96.1793C38.5768 96.8965 37.3646 97.5237 36.4365 97.9625L36.4337 97.9653ZM34.8334 74.0956C34.8531 74.1518 34.8475 74.2868 34.7659 74.4612C34.2625 75.5018 32.9715 75.7606 31.8775 75.9237C30.91 76.0643 30.924 76.0981 29.9509 74.7678C28.6487 72.9959 27.625 70.895 27.355 68.7209C27.594 68.6815 28.4462 68.5437 28.8118 68.4846C30.8931 68.1696 30.834 68.0515 31.3628 68.0796C31.3656 69.4831 31.8268 70.895 32.6903 72.0143C33.7028 73.3081 34.7153 73.7581 34.8362 74.0956H34.8334ZM53.4943 65.6496C44.0218 66.2937 31.0506 67.1796 29.0228 65.585C25.3918 62.7246 23.0406 59.8221 21.8284 56.7143C21.6906 56.3628 21.2968 56.1856 20.9425 56.3234C20.5909 56.4612 20.4165 56.8578 20.5515 57.2093C21.8537 60.5506 24.3456 63.6443 28.1734 66.6621C28.3731 66.8196 28.6515 66.9546 28.9637 67.0756C10.5137 69.8571 10.7725 72.214 6.75902 69.6406C2.79621 67.1009 0.357768 61.2031 1.7612 56.1125C3.68777 49.115 11.1718 47.7059 20.8975 43.31C19.7781 44.8006 19.3703 46.9718 19.2296 48.634C19.1987 49.0109 19.4771 49.3428 19.854 49.3737C20.2225 49.4075 20.5628 49.1318 20.5937 48.7493C20.709 47.3825 21.0915 44.9103 22.3768 43.6981C30.5865 35.9187 39.7131 28.3615 49.2221 21.9912C47.7625 37.3671 54.6925 55.2687 65.5375 64.9943C62.4353 65.045 58.0731 65.3346 53.4887 65.6468L53.4943 65.6496ZM79.7096 63.9171C73.2015 58.3484 77.2515 47.6665 86.3218 47.6665C91.2775 47.6665 95.5075 51.3143 95.8815 56.194C96.5228 64.5725 86.139 69.4268 79.7068 63.9171H79.7096ZM77.7353 42.5871C73.9046 45.1578 69.6184 47.5343 64.9271 49.655C61.7912 43.8387 59.665 37.3559 58.7678 30.8253C63.3915 29.5568 67.8718 28.5837 72.1412 27.9031C69.6943 32.2428 73.2072 41.0993 77.7353 42.5871ZM79.839 42.8318C79.9318 42.7671 79.9965 42.6771 80.0443 42.5843C82.6206 41.569 83.3068 37.249 81.5996 32.704C79.9487 28.3165 76.765 25.5856 74.2 26.2437C74.1184 26.224 74.0312 26.2156 73.9412 26.2325C69.084 26.9075 63.9203 27.9987 58.585 29.4556C56.6528 11.6553 65.7287 2.70308 77.3865 14.0065C84.8312 21.2206 90.76 34.7825 91.1762 47.3993C89.41 46.5528 87.4328 46.1703 85.3937 46.3334C76.734 47.0168 72.1468 56.6581 77.3021 63.3462C73.1903 61.2931 69.0025 56.7818 65.5993 50.8503C70.8587 48.4681 75.654 45.7765 79.839 42.8318ZM94.8718 50.2821C94.1096 49.3625 93.4993 48.814 92.5881 48.1981C92.4306 35.9665 86.7747 21.1981 78.34 13.0193C66.0915 1.14777 54.9175 9.83558 57.2659 30.0068C57.1731 30.1615 57.1421 30.3528 57.1928 30.5412C57.2265 30.6621 57.3081 30.7493 57.3925 30.8309C57.8706 34.414 58.7368 38.1631 60.0418 41.9234C64.4575 54.6218 72.4253 64.1618 79.8925 65.72C82.0665 67.1712 84.6625 67.8884 87.5818 67.5171C81.6446 72.1718 74.3715 70.2228 68.3612 65.6075C68.319 65.2812 68.0631 65.0196 67.7256 65.0056C67.6834 65.0056 67.63 65.0056 67.5878 65.0056C61.87 60.3171 56.6781 52.7515 53.455 43.4871C47.2 25.4421 50.7184 7.7712 61.3018 4.09808C66.3615 2.33464 72.3156 4.02776 78.0615 8.86245C83.9059 13.7815 88.8081 21.3387 91.8681 30.1418C94.2559 37.0043 95.274 43.9203 94.8746 50.285L94.8718 50.2821Z" fill="white"/>
<path d="M84.457 55.4036C84.2095 55.2518 84.1532 54.0199 84.907 53.0946C85.7423 52.0652 86.8954 52.1271 87.2723 52.7627C87.4635 53.0889 87.8798 53.1958 88.2089 53.0046C88.5351 52.8133 88.642 52.3914 88.4507 52.068C88.026 51.348 87.2104 50.9374 86.3273 50.9486C86.302 50.763 86.2935 50.5717 86.2626 50.3861C86.2092 50.088 86.1501 49.7899 86.1417 49.4833C86.1135 48.5524 84.7467 48.6311 84.772 49.5227C84.7917 50.1274 84.9042 50.3946 84.997 51.2974C82.6795 52.5096 82.3729 55.7243 83.7342 56.568C84.561 57.0799 85.6073 56.6636 86.6367 56.6636C86.9826 56.6889 87.3651 56.7086 87.6238 56.9393C88.8023 57.9771 86.5776 61.9314 84.3529 58.7589C84.1364 58.4496 83.7117 58.3764 83.3995 58.5902C83.0901 58.8068 83.0142 59.2343 83.2307 59.5408C83.9479 60.5646 84.8985 61.3239 86.136 61.3239C86.257 61.3239 86.3695 61.2818 86.4876 61.2677C86.5973 61.7796 86.7042 62.2943 86.7857 62.8146C86.8392 63.1521 87.1289 63.3939 87.4607 63.3939C87.8826 63.3939 88.2032 63.0171 88.1385 62.6036C88.0429 61.9905 87.9192 61.3858 87.787 60.7811C89.2607 59.7124 89.9385 57.153 88.5295 55.9071C87.1851 54.7146 84.9154 55.6764 84.4542 55.398L84.457 55.4036Z" fill="white"/>
<path d="M106.811 9.84928C106.437 9.63834 106.046 9.62147 105.674 9.62428C102.19 9.64959 99.0595 10.8252 95.9798 11.9924C95.5073 12.1724 94.7451 12.4846 94.7451 13.1962C94.7451 13.8908 95.4511 14.7262 96.0079 14.9933C96.7364 15.3449 97.4564 15.2099 98.1145 15.0496C101.2 14.3071 104.144 13.1962 106.892 11.7393C107.19 11.5818 107.514 11.3708 107.525 10.9546C107.536 10.5271 107.185 10.0602 106.811 9.84928Z" fill="white"/>
<path d="M108.082 23.5969C108.234 23.3748 108.13 22.9669 107.925 22.6857C107.717 22.4016 107.433 22.216 107.157 22.0501C104.564 20.4779 101.844 19.6791 99.1638 18.8973C98.7532 18.7763 98.081 18.5963 97.842 18.9732C97.6085 19.3416 97.8504 20.1038 98.1738 20.5004C98.5957 21.0179 99.1751 21.2738 99.7179 21.4904C102.258 22.5001 104.817 23.251 107.348 23.7263C107.624 23.7769 107.936 23.8135 108.082 23.5969Z" fill="white"/>
<path d="M95.1725 0.00854929C94.9222 0.0563618 94.7422 0.244799 94.5762 0.438862C93.0209 2.2473 92.0618 4.66605 91.1225 7.05667C90.979 7.4223 90.754 8.0298 91.0268 8.52199C91.2912 9.00011 91.9268 9.21105 92.2812 9.1098C92.7425 8.97761 93.0125 8.51355 93.2487 8.06355C94.3512 5.96542 95.2512 3.6873 95.929 1.26855C96.0022 1.00699 96.0668 0.694799 95.915 0.402299C95.7575 0.104174 95.42 -0.0392632 95.1725 0.00854929Z" fill="white"/>
<path d="M69.1233 116.697C69.1768 116.674 69.1993 116.621 69.2443 116.587C76.8549 115.228 80.9443 107.007 79.1218 99.1915C78.5115 96.5731 77.288 94.1571 75.5836 92.2025C75.3333 91.9184 74.903 91.8875 74.6161 92.1378C74.3321 92.3853 74.3011 92.8184 74.5515 93.1025C76.1096 94.8884 77.229 97.1018 77.7858 99.5037C80.0752 109.328 72.2621 118.575 62.559 114.328C59.0686 112.661 56.2224 109.198 55.1902 104.772C54.594 102.212 54.6924 99.6781 55.3336 97.4056C56.1436 94.7253 57.8058 92.1997 60.5508 90.3097C64.0524 88.2172 68.1221 88.4787 71.4605 90.5009C71.784 90.6922 72.2058 90.5909 72.3999 90.2703C72.5968 89.9468 72.4927 89.525 72.1693 89.3281C68.5721 87.154 64.193 86.7968 60.3286 88.8668C60.3146 88.8697 60.3005 88.8584 60.2836 88.8668C53.393 90.9284 49.3515 98.4715 51.084 106.037C51.9952 109.994 54.4083 113.445 57.7102 115.498C59.859 116.837 62.258 117.526 64.674 117.526C66.1561 117.526 67.7733 117.253 69.1205 116.708L69.1233 116.697Z" fill="white"/>
<path d="M69.7364 107.311C70.9823 104.814 70.0233 101.622 66.7861 101.337C65.6752 101.245 64.3195 101.546 63.8273 101.2C63.1945 100.758 62.9892 98.8119 63.8442 97.5687C64.7386 96.2666 66.3755 96.3341 67.1573 97.5716C67.3598 97.8922 67.7817 97.9878 68.1023 97.7853C68.423 97.5828 68.5186 97.1609 68.3161 96.8403C67.6805 95.8306 66.5836 95.2316 65.453 95.24C65.4473 95.24 65.4417 95.24 65.4361 95.24C65.2448 94.2697 64.9636 93.5356 64.8652 92.8128C64.7358 91.8931 63.3858 92.1181 63.5095 93.0012C63.6333 93.8956 63.937 94.6325 64.1114 95.5887C61.448 96.9022 61.3327 101.115 63.0455 102.316C64.5023 103.332 66.7889 101.996 68.167 103.284C68.9067 103.978 69.1739 105.371 68.513 106.692C68.347 107.024 68.1614 107.275 67.9589 107.441C67.4892 107.823 66.7327 107.857 66.0323 107.522C65.3798 107.207 64.7442 106.617 64.0889 105.711C63.8667 105.407 63.442 105.337 63.1327 105.556C62.8261 105.778 62.7586 106.206 62.978 106.512C63.968 107.882 65.3095 109.125 67.0055 109.125C67.1517 109.125 67.2839 109.077 67.4245 109.058C67.6889 109.902 67.9364 110.754 68.1558 111.612C68.2486 111.974 68.617 112.202 68.9883 112.107C69.3567 112.014 69.5761 111.642 69.4861 111.277C69.2555 110.363 68.9911 109.463 68.7098 108.566C68.7464 108.537 68.7914 108.529 68.828 108.501C69.1795 108.214 69.4889 107.812 69.7392 107.306L69.7364 107.311Z" fill="white"/>
<path d="M96.8914 78.6657C97.0883 78.3422 96.9842 77.9203 96.6608 77.7235C94.2955 76.2947 91.3986 75.9938 88.7351 77.3972C88.7211 77.4 88.707 77.3888 88.6958 77.3972C84.0664 78.781 81.3495 83.8407 82.5111 88.9116C83.8723 94.8178 89.7983 98.0157 94.6301 96.061C94.6611 96.0469 94.6751 96.0132 94.7033 95.9963C99.7995 95.0625 102.533 89.5557 101.315 84.3328C100.908 82.5807 100.089 80.9635 98.9501 79.6557C98.7026 79.3716 98.2695 79.3407 97.9826 79.591C97.6986 79.8385 97.6676 80.2716 97.918 80.5585C98.9108 81.6947 99.6251 83.1066 99.9823 84.6422C101.462 90.9985 96.3598 96.8597 90.1892 93.9741C84.9158 91.291 83.3014 82.9407 88.9376 78.885C89.5367 78.5053 90.1751 78.1903 90.8895 78.0244C92.5742 77.6307 94.3714 77.94 95.952 78.8991C96.2755 79.0903 96.6973 78.9891 96.8914 78.6685V78.6657Z" fill="white"/>
<path d="M93.032 85.5534C92.717 85.528 92.4695 85.5365 91.6426 85.573C91.4879 85.573 91.3051 85.573 91.2123 85.5055C90.9198 85.3059 90.7904 84.1724 91.2826 83.458C91.7101 82.8365 92.5623 82.6705 93.0573 83.4552C93.2598 83.773 93.6845 83.8715 94.0023 83.6662C94.3201 83.4637 94.4157 83.0418 94.2132 82.7212C93.7829 82.0462 93.0882 81.6721 92.3092 81.5934C92.0026 80.2518 92.0307 80.4909 91.9885 80.1843C91.9351 79.8102 91.5976 79.5402 91.2151 79.6021C90.841 79.6527 90.5795 79.9987 90.6301 80.3727C90.6976 80.8452 90.7538 80.9015 90.9788 81.9112C89.9495 82.5243 89.5135 83.714 89.5895 84.8868C89.6654 86.099 90.2954 86.9427 91.5779 86.9427C92.3598 86.9287 93.2542 86.774 93.7492 87.2409C94.3848 87.8371 94.1823 89.1449 93.6254 89.6062C93.3892 89.7974 92.9926 89.8087 92.6157 89.6287C92.2276 89.443 91.8423 89.0802 91.4373 88.5205C91.2151 88.2168 90.7904 88.1465 90.481 88.3659C90.1745 88.588 90.107 89.0155 90.3263 89.3221C91.0576 90.3318 92.0138 91.1755 93.257 91.1137C93.406 91.6002 93.5523 92.0868 93.676 92.579C93.766 92.9362 94.1288 93.1696 94.5085 93.074C94.8742 92.9812 95.0963 92.6099 95.0035 92.2443C94.8657 91.6987 94.7054 91.1587 94.5395 90.6215C96.1792 89.1815 95.8473 85.8093 93.0292 85.5562L93.032 85.5534Z" fill="white"/>
</g>
<defs>
<clipPath id="clip0_655_28252">
<rect width="108.155" height="138.684" fill="white"/>
</clipPath>
</defs>
</svg>
