<svg width="30" height="30" viewBox="0 0 30 30" fill="none" xmlns="http://www.w3.org/2000/svg">
<path d="M5.5959 6.09365H24.3459C24.5649 6.09355 24.7837 6.10745 25.001 6.13525C24.9273 5.61832 24.7498 5.12166 24.479 4.67521C24.2082 4.22876 23.8498 3.84176 23.4254 3.53756C23.0011 3.23336 22.5195 3.01825 22.0097 2.9052C21.4999 2.79215 20.9726 2.78351 20.4594 2.87979L5.03926 5.5124H5.02168C4.05375 5.6975 3.19301 6.24513 2.61523 7.04346C3.4857 6.42431 4.5277 6.09227 5.5959 6.09365Z" fill="#0F2BA4"/>
<path d="M24.3457 7.5H5.5957C4.60147 7.50109 3.64828 7.89652 2.94525 8.59955C2.24223 9.30257 1.84679 10.2558 1.8457 11.25V22.5C1.84679 23.4942 2.24223 24.4474 2.94525 25.1505C3.64828 25.8535 4.60147 26.2489 5.5957 26.25H24.3457C25.3399 26.2489 26.2931 25.8535 26.9962 25.1505C27.6992 24.4474 28.0946 23.4942 28.0957 22.5V11.25C28.0946 10.2558 27.6992 9.30257 26.9962 8.59955C26.2931 7.89652 25.3399 7.50109 24.3457 7.5ZM21.5625 18.75C21.1917 18.75 20.8291 18.64 20.5208 18.434C20.2125 18.228 19.9721 17.9351 19.8302 17.5925C19.6883 17.2499 19.6512 16.8729 19.7235 16.5092C19.7959 16.1455 19.9745 15.8114 20.2367 15.5492C20.4989 15.287 20.833 15.1084 21.1967 15.036C21.5604 14.9637 21.9374 15.0008 22.28 15.1427C22.6226 15.2846 22.9155 15.525 23.1215 15.8333C23.3275 16.1416 23.4375 16.5042 23.4375 16.875C23.4375 17.3723 23.24 17.8492 22.8883 18.2008C22.5367 18.5525 22.0598 18.75 21.5625 18.75Z" fill="#0F2BA4"/>
<path d="M1.875 15.2051V9.375C1.875 8.10527 2.57812 5.97656 5.01855 5.51543C7.08984 5.12695 9.14062 5.12695 9.14062 5.12695C9.14062 5.12695 10.4883 6.06445 9.375 6.06445C8.26172 6.06445 8.29102 7.5 9.375 7.5C10.459 7.5 9.375 8.87695 9.375 8.87695L5.00977 13.8281L1.875 15.2051Z" fill="#0F2BA4"/>
</svg>
