<svg width="750" height="133" viewBox="0 0 750 133" fill="none" xmlns="http://www.w3.org/2000/svg">
<g clip-path="url(#clip0_192_31261)">
<path d="M0 48.144V129.29H79.5951V83.5347L51.1683 48.144H0Z" fill="#0F2BA4"/>
<path d="M140.611 81.671V0.525391H61.0293V47.3956L89.4561 81.671H140.611Z" fill="#0F2BA4"/>
<path d="M219.743 125.414C214.751 129.48 208.046 131.507 199.64 131.507C191.235 131.507 184.135 129.372 178.898 125.087C173.227 120.531 170.397 114.07 170.397 105.733V103.107H190.99C190.99 106.1 191.643 108.616 192.962 110.643C194.458 112.996 196.621 114.165 199.436 114.165C204.673 114.165 207.298 111.581 207.298 106.413C207.298 104.06 206.387 102.155 204.564 100.686C203.857 100.115 202.918 99.5439 201.789 98.9726L200.239 98.2246L191.412 94.4298C188.487 93.2193 185.971 91.9952 183.876 90.7438C181.387 89.2885 179.279 87.6971 177.565 85.9834C173.607 81.9574 171.635 77.0337 171.635 71.2259C171.635 64.058 174.627 58.1958 180.626 53.6258C186.121 49.4501 192.568 47.3691 199.98 47.3691C204.156 47.3691 208.141 48.1172 211.963 49.6134C216.098 51.2591 219.417 53.5714 221.906 56.5637C225.252 60.6985 227.033 66.0302 227.251 72.5588H206.767C205.979 67.2815 203.503 64.6428 199.328 64.6428C194.581 64.6428 192.214 66.7647 192.214 71.0083C192.214 72.5044 192.459 73.6469 192.962 74.4358C193.778 75.8232 196.254 77.5369 200.402 79.5635L208.957 83.4127C211.95 84.7728 214.452 86.065 216.438 87.3163C218.859 88.8124 220.858 90.4038 222.423 92.0768C226.054 95.9259 227.877 100.782 227.877 106.617C227.877 114.75 225.17 121.007 219.743 125.386V125.414Z" fill="#0F2BA4"/>
<path d="M275.032 129.957V96.9058C275.032 93.0974 274.392 90.1459 273.1 88.0785C271.495 85.4807 268.87 84.1749 265.239 84.1749C261.607 84.1749 258.887 85.3175 257.214 87.6025C255.786 89.5611 255.079 92.431 255.079 96.2121V129.957H236.894V48.8931H255.079V74.7764H255.296C256.792 72.097 259.037 70.1112 262.029 68.7918C264.599 67.6493 267.578 67.0781 270.965 67.0781C278.16 67.0781 283.669 69.3087 287.491 73.7563C290.088 76.7486 291.775 80.2578 292.523 84.2974C292.85 85.9023 293.04 87.7929 293.108 89.9691C293.149 90.826 293.176 91.8189 293.217 92.9614V129.971H275.032V129.957Z" fill="#0F2BA4"/>
<path d="M351.772 129.957V123.373H351.554C350.017 126.298 347.474 128.528 343.91 130.052C340.85 131.371 337.477 132.038 333.805 132.038C324.637 132.038 317.211 128.882 311.498 122.571C306.003 116.437 303.27 108.752 303.27 99.5167C303.27 90.2814 306.071 82.8007 311.662 76.6256C317.469 70.2466 324.855 67.0503 333.805 67.0503C337.436 67.0503 340.796 67.7304 343.856 69.0769C347.283 70.573 349.841 72.7493 351.554 75.6055H351.772V69.1313H369.957V129.929H351.772V129.957ZM347.447 88.4588C344.563 85.5345 340.904 84.0792 336.484 84.0792C332.064 84.0792 328.486 85.6161 325.63 88.6764C322.855 91.6415 321.455 95.3275 321.455 99.7479C321.455 104.168 322.896 107.596 325.78 110.547C328.745 113.54 332.336 115.036 336.579 115.036C340.823 115.036 344.604 113.553 347.488 110.602C350.344 107.637 351.772 103.951 351.772 99.5303C351.772 95.1099 350.33 91.3831 347.447 88.4588Z" fill="#0F2BA4"/>
<path d="M415.575 85.3573C410.909 85.4933 407.523 86.2142 405.414 87.4927C402.64 89.2065 401.239 92.2124 401.239 96.524V129.942H383.054V69.1445H400.11V75.6187H400.382C403.265 69.9198 408.325 67.0635 415.575 67.0635V85.3573Z" fill="#0F2BA4"/>
<path d="M483.161 105.093H437.596C438.739 112.764 443.472 116.586 451.823 116.586C456.176 116.586 459.862 114.696 462.895 110.915H481.501C478.795 117.226 474.905 122.258 469.845 125.999C464.459 129.957 458.461 131.929 451.823 131.929C442.942 131.929 435.366 128.773 429.095 122.462C422.784 116.192 419.629 108.616 419.629 99.7343C419.629 90.8526 422.716 83.1815 428.878 76.7889C435.121 70.301 442.656 67.0503 451.497 67.0503C460.338 67.0503 468.376 70.301 474.551 76.7889C480.577 83.1679 483.582 91.0023 483.582 100.265C483.582 102.006 483.433 103.611 483.161 105.08V105.093ZM465.411 92.852C463.915 85.9018 459.318 82.4198 451.619 82.4198C443.921 82.4198 439.324 85.9018 437.828 92.852H465.425H465.411Z" fill="#0F2BA4"/>
<path d="M541.673 129.958V97.5456H515.15V129.958H494.449V48.8936H515.15V79.3742H541.673V48.8936H562.374V129.958H541.673Z" fill="#0F2BA4"/>
<path d="M615.311 129.956V123.481H615.093C613.597 126.583 611.421 128.813 608.565 130.16C606.103 131.343 603.015 131.928 599.316 131.928C591.576 131.928 585.619 129.384 581.457 124.284C579.172 121.428 577.662 118.476 576.914 115.402C576.302 113.09 576.003 109.785 576.003 105.514V69.144H594.188V102.78C594.188 106.697 594.8 109.594 596.011 111.444C597.507 113.756 600.145 114.926 603.926 114.926C610.877 114.926 614.359 110.805 614.359 102.576V69.1576H632.544V129.956H615.324H615.311Z" fill="#0F2BA4"/>
<path d="M703.122 122.475C697.423 128.854 689.929 132.051 680.666 132.051C677.211 132.051 673.933 131.371 670.832 130.024C667.269 128.46 664.752 126.284 663.297 123.496H663.08V129.97H645.643V48.9058H663.828V73.9866C668.139 69.3894 674.029 67.0908 681.469 67.0908C685.712 67.0908 689.969 68.0837 694.254 70.0831C699.953 72.7217 704.278 76.6797 707.189 81.957C709.963 86.9079 711.364 92.6749 711.364 99.2307C711.364 108.602 708.617 116.368 703.122 122.489V122.475ZM688.895 88.6761C686.011 85.6158 682.461 84.0788 678.259 84.0788C674.056 84.0788 670.383 85.5614 667.459 88.5129C664.603 91.478 663.175 95.1095 663.175 99.4212C663.175 103.733 664.535 107.5 667.242 110.493C670.016 113.526 673.593 115.035 677.932 115.035C682.271 115.035 685.916 113.539 688.84 110.547C691.724 107.555 693.166 103.882 693.166 99.53C693.166 95.1775 691.738 91.6684 688.881 88.6761H688.895Z" fill="#0F2BA4"/>
</g>
<path d="M733.654 37.7115V40.935H732.063V30.2172H735.205C735.631 30.2172 735.909 30.2183 736.091 30.2397L736.118 30.2429L736.145 30.2439C736.475 30.2561 736.753 30.2925 737.009 30.3412L737.009 30.3413L737.022 30.3436C737.657 30.4515 738.141 30.6594 738.493 30.9384C739.31 31.6001 739.734 32.4859 739.734 33.7127C739.734 34.5471 739.514 35.2136 739.085 35.7751L739.085 35.775L739.079 35.7834C738.647 36.3656 738.062 36.7129 737.3 36.8362L736.151 37.022L736.877 37.9317L739.273 40.935H737.5L734.915 37.3162L734.711 37.0315H734.362H734.334H733.654V37.7115ZM737.236 32.0466L737.234 32.049C736.749 31.7054 736.126 31.5501 735.45 31.5501H734.321H733.641V32.2302V35.5897V36.2698H734.321H735.409C736.162 36.2698 736.856 36.1124 737.367 35.6779C737.9 35.2254 738.115 34.5768 738.115 33.8623C738.115 33.1158 737.829 32.4763 737.236 32.0466Z" fill="#0F2BA4" stroke="#0F2BA4" stroke-width="1.36013"/>
<path d="M735.613 49.6392C728.466 49.6392 722.637 43.8227 722.637 36.6636C722.637 29.504 728.453 23.6879 735.613 23.6879C742.772 23.6879 748.588 29.504 748.588 36.6636C748.588 43.8231 742.772 49.6392 735.613 49.6392ZM735.613 25.0616C729.212 25.0616 723.997 30.262 723.997 36.6772C723.997 43.0917 729.198 48.2927 735.613 48.2927C742.027 48.2927 747.228 43.0918 747.228 36.6772C747.228 30.2626 742.027 25.0616 735.613 25.0616Z" fill="#0F2BA4" stroke="#0F2BA4" stroke-width="1.36013"/>
<defs>
<clipPath id="clip0_192_31261">
<rect width="738.648" height="131.525" fill="white" transform="translate(0 0.524902)"/>
</clipPath>
</defs>
</svg>
